<svg xmlns="http://www.w3.org/2000/svg" viewBox="0 0 500 500" id="360239f4"><g fill="#23272A"><path d="M137 46.7h225.9v406.6H137z"/><ellipse cx="137" cy="250" rx="135.5" ry="203.3"/><ellipse cx="363" cy="250" rx="135.5" ry="203.3"/></g><g fill="#7289DA"><path d="M137 69.3h225.9v361.5H137z"/><ellipse cx="137" cy="250" rx="113" ry="180.7"/><ellipse cx="363" cy="250" rx="113" ry="180.7"/></g><g fill="#2C2F33"><path d="M159.6 159.6c12.5 0 22.6 10.1 22.6 22.6v90.4c0 12.5-10.1 22.6-22.6 22.6-12.5 0-22.6-10.1-22.6-22.6v-90.4c0-12.4 10.2-22.6 22.6-22.6zM340.4 159.6c12.5 0 22.6 10.1 22.6 22.6v90.4c0 12.5-10.1 22.6-22.6 22.6-12.5 0-22.6-10.1-22.6-22.6v-90.4c0-12.4 10.1-22.6 22.6-22.6zM238.7 340.4h22.6c12.5 0 22.6 10.1 22.6 22.6 0 12.5-10.1 22.6-22.6 22.6h-22.6c-12.5 0-22.6-10.1-22.6-22.6 0-12.5 10.1-22.6 22.6-22.6z"/></g></svg>